# xmcd
#
# Track frame offsets:
#	150
#	14690
#	29752
#	43129
#	57557
#	69128
#	93763
#	106454
#	129385
#	143308
#	154211
#	180297
#	202178
#	216758
#	230304
#	249198
#	262072
#	287815
#
# Disc length: 4168 seconds
#
# Revision: 0
# Processed by: cddbd v1.5.2PL0 Copyright (c) Steve Scherf et al.
# Submitted via: EZCDAudioConverter 1.3.4.1
#
DISCID=02104612
DTITLE=V/A - The Message
DYEAR=1900
DGENRE=
TTITLE0=Chubukos - Afrique - House Of Rising Funk
TTITLE1=Blue Mitchell - The Message
TTITLE2=The Delegates - Funky Butt
TTITLE3=Ellerine Harding - To Whom It May Concern (All I Need)
TTITLE4=Alice Clark - Never Did I Stop Loving You
TTITLE5=Bobby Shad and The Shad Men - I Want You Back
TTITLE6=Afrique - Soul Makossa
TTITLE7=Charles Kynard - So Much Trouble In My Mind
TTITLE8=Linda Perry and The Funky Boys - I Need Someone [Instrumental]
TTITLE9=Maxine Weldon - Grits Ain't Groceries (All Around The World)
TTITLE10=Curtis Fuller - The Spirit
TTITLE11=Charles Williams - Booger Bear
TTITLE12=Charles Kynard - Rock Steady
TTITLE13=Dave Hubbard - Respect Yourself
TTITLE14=Sarah Vaughan - Inner City Blues (Make Me Wanna Holler)
TTITLE15=Ellerine Harding - I Know Something That You Don't Know
TTITLE16=Dave Hubbard - Patience
TTITLE17=Charles Williams - Bacon Butt Fat
EXTD=
EXTT0=
EXTT1=
EXTT2=
EXTT3=
EXTT4=
EXTT5=
EXTT6=
EXTT7=
EXTT8=
EXTT9=
EXTT10=
EXTT11=
EXTT12=
EXTT13=
EXTT14=
EXTT15=
EXTT16=
EXTT17=
PLAYORDER=
